<?xml version="1.0" standalone="no"?>
<!DOCTYPE svg PUBLIC "-//W3C//DTD SVG 20010904//EN"
 "http://www.w3.org/TR/2001/REC-SVG-20010904/DTD/svg10.dtd">
<svg version="1.0" xmlns="http://www.w3.org/2000/svg"
 width="1004.000000pt" height="1004.000000pt" viewBox="0 0 1004.000000 1004.000000"
 preserveAspectRatio="xMidYMid meet">
<metadata>
Created by potrace 1.11, written by Peter Selinger 2001-2013
</metadata>
<g transform="translate(0.000000,1004.000000) scale(0.100000,-0.100000)"
fill="#000000" stroke="none">
<path d="M1089 10036 c-2 -2 -24 -6 -49 -10 -182 -24 -345 -87 -505 -194 -275
-185 -456 -466 -519 -807 -13 -70 -15 -571 -13 -4030 1 -2172 6 -3961 10
-3975 4 -14 10 -38 13 -55 24 -134 94 -298 183 -433 148 -220 387 -398 641
-476 189 -58 -96 -54 4195 -52 2173 1 3961 5 3975 9 14 3 41 9 60 13 60 10
192 55 260 87 369 174 636 534 688 927 9 72 9 7900 0 7965 -25 171 -92 342
-193 495 -185 277 -475 466 -805 523 -74 13 -592 15 -4011 16 -2159 1 -3928
-1 -3930 -3z"/>
</g>
</svg>
