<?xml version="1.0" standalone="no"?>
<!DOCTYPE svg PUBLIC "-//W3C//DTD SVG 20010904//EN"
 "http://www.w3.org/TR/2001/REC-SVG-20010904/DTD/svg10.dtd">
<svg version="1.0" xmlns="http://www.w3.org/2000/svg"
 width="120.000000pt" height="120.000000pt" viewBox="0 0 120.000000 120.000000"
 preserveAspectRatio="xMidYMid meet">
<metadata>
Created by potrace 1.11, written by Peter Selinger 2001-2013
</metadata>
<g transform="translate(0.000000,120.000000) scale(0.100000,-0.100000)"
fill="#000000" stroke="none">
<path d="M587 1133 c-2 -1 -18 -5 -36 -8 -88 -15 -210 -85 -282 -162 -38 -40
-100 -125 -105 -143 0 -3 -4 -12 -7 -20 -44 -99 -57 -229 -35 -336 34 -164
162 -313 323 -374 74 -28 227 -35 287 -14 21 7 41 13 43 13 17 -1 100 48 138
81 96 85 147 195 152 325 6 177 -84 315 -243 376 -57 21 -153 29 -217 17 -95
-17 -187 -92 -234 -191 -25 -52 -28 -70 -26 -136 1 -42 8 -89 15 -106 7 -16
13 -33 12 -36 -3 -15 81 -89 125 -110 52 -25 62 -28 108 -30 67 -4 158 33 197
80 47 56 65 131 47 197 -20 70 -112 131 -187 122 -71 -8 -129 -95 -97 -144 25
-39 87 -36 100 5 12 39 66 14 72 -34 5 -37 -21 -73 -69 -95 -48 -21 -90 -17
-139 15 -50 32 -68 76 -65 152 3 82 39 136 116 175 44 22 64 26 109 23 87 -6
122 -19 175 -66 62 -54 81 -101 81 -199 0 -72 -4 -93 -28 -141 -140 -287 -558
-240 -667 75 -23 68 -24 200 -2 265 20 58 60 127 99 169 67 70 188 131 293
146 41 6 60 28 54 64 -6 36 -31 53 -72 50 -18 -1 -34 -3 -35 -5z"/>
</g>
</svg>
