<?xml version="1.0" standalone="no"?>
<!DOCTYPE svg PUBLIC "-//W3C//DTD SVG 20010904//EN"
 "http://www.w3.org/TR/2001/REC-SVG-20010904/DTD/svg10.dtd">
<svg version="1.0" xmlns="http://www.w3.org/2000/svg"
 width="160.000000pt" height="160.000000pt" viewBox="0 0 160.000000 160.000000"
 preserveAspectRatio="xMidYMid meet">
<metadata>
Created by potrace 1.14, written by Peter Selinger 2001-2017
</metadata>
<g transform="translate(0.000000,160.000000) scale(0.100000,-0.100000)"
fill="#000000" stroke="none">
<path d="M765 1515 c-159 -35 -271 -94 -387 -204 -167 -158 -248 -358 -235
-581 11 -182 75 -329 202 -455 190 -191 458 -252 702 -159 320 120 476 511
325 814 -35 72 -132 168 -208 207 -155 82 -343 84 -486 6 -69 -38 -153 -130
-190 -210 -41 -87 -51 -219 -23 -304 63 -189 255 -301 436 -255 220 57 324
300 191 448 -75 83 -195 111 -277 65 -45 -26 -85 -87 -85 -133 0 -74 93 -112
145 -59 14 13 25 29 25 35 0 17 25 11 55 -12 24 -18 27 -26 22 -61 -11 -78
-105 -137 -190 -117 -114 25 -174 111 -165 234 13 161 145 266 318 254 176
-13 302 -138 317 -315 15 -176 -79 -343 -234 -420 -70 -35 -84 -38 -178 -41
-163 -6 -274 35 -380 142 -206 206 -203 547 6 771 95 101 206 160 353 186 34
6 68 16 77 22 49 37 47 106 -4 138 -37 22 -50 22 -132 4z"/>
</g>
</svg>
